<?xml version="1.0" encoding="UTF-8"?>
<svg id="Layer_1" xmlns="http://www.w3.org/2000/svg" version="1.1" viewBox="0 0 256 256">
  <!-- Generator: Adobe Illustrator 29.5.1, SVG Export Plug-In . SVG Version: 2.1.0 Build 141)  -->
  <defs>
    <style>
      .st0 {
        fill: #ffbf3f;
      }

      .st1 {
        fill: #201f1f;
      }
    </style>
  </defs>
  <rect class="st0" width="256" height="256" rx="64" ry="64"/>
  <path class="st1" d="M80.2,119.1V29.5h59v14h-41.7v23.4h37.9v13.4h-37.9v24.8h41.7v13.9h-59Z"/>
  <path class="st1" d="M179.4,120.6c-5.9,0-11.2-1.4-15.9-4.3s-8.4-6.9-11.1-12-4-10.9-4-17.3,1.3-12.2,4-17.3c2.7-5,6.4-9,11.2-12,4.8-2.9,10.1-4.4,16.1-4.4s8.7.8,12.2,2.6c3.5,1.7,6.3,4.1,8.4,7.3V26.9h17.3v92.2h-15.4l-2.1-8.8c-1.4,1.9-3,3.6-4.9,5.2-1.9,1.6-4.1,2.8-6.7,3.8s-5.7,1.4-9.3,1.4h0ZM183.4,105.5c3.5,0,6.6-.8,9.1-2.3,2.6-1.5,4.6-3.7,6.1-6.6s2.2-6.1,2.2-9.8-.7-6.9-2.2-9.7c-1.4-2.8-3.5-5-6.1-6.5-2.6-1.5-5.7-2.2-9.2-2.2s-6.1.8-8.7,2.3c-2.6,1.5-4.7,3.7-6.2,6.5s-2.2,6-2.2,9.6.8,6.9,2.2,9.7c1.5,2.8,3.6,5,6.2,6.6,2.6,1.6,5.6,2.4,8.8,2.4h0Z"/>
  <path class="st1" d="M56,229.1l-32.6-89.6h18.4l24.8,71.9,25-71.9h18.3l-32.6,89.6h-21.2,0Z"/>
  <path class="st1" d="M128.6,155.9c-3.2,0-5.7-.9-7.7-2.8s-2.9-4.2-2.9-7,1-5.1,2.9-7c2-1.8,4.5-2.8,7.7-2.8s5.7.9,7.7,2.8c2,1.8,3,4.2,3,7s-1,5.1-3,7-4.6,2.8-7.7,2.8ZM119.9,229.1v-64.3h17.3v64.3h-17.3Z"/>
  <path class="st1" d="M179.4,230.6c-5.9,0-11.2-1.4-15.9-4.4-4.7-2.9-8.4-6.9-11.1-12s-4-10.9-4-17.3,1.3-12.2,4-17.3c2.7-5,6.4-9,11.2-12,4.8-2.9,10.1-4.4,16.1-4.4s8.7.9,12.2,2.6c3.5,1.7,6.3,4.1,8.4,7.3v-36.2h17.3v92.2h-15.4l-2.1-8.8c-1.4,1.9-3,3.6-4.9,5.2-1.9,1.6-4.1,2.8-6.7,3.8s-5.7,1.4-9.3,1.4h0ZM183.4,215.5c3.5,0,6.6-.8,9.1-2.3,2.6-1.5,4.6-3.7,6.1-6.6s2.2-6.1,2.2-9.8-.7-6.9-2.2-9.7c-1.4-2.8-3.5-5-6.1-6.5-2.6-1.5-5.7-2.2-9.2-2.2s-6.1.8-8.7,2.3c-2.6,1.5-4.7,3.7-6.2,6.5-1.5,2.8-2.2,6-2.2,9.6s.8,6.9,2.2,9.7c1.5,2.8,3.6,5,6.2,6.6,2.6,1.6,5.6,2.4,8.8,2.4h0Z"/>
</svg>